<svg id="visual" viewBox="0 0 900 600" width="900" height="600" xmlns="http://www.w3.org/2000/svg" xmlns:xlink="http://www.w3.org/1999/xlink" version="1.1"><rect x="0" y="0" width="900" height="600" fill="#ffffff"></rect><path d="M0 489L21.5 487.8C43 486.7 86 484.3 128.8 488.8C171.7 493.3 214.3 504.7 257.2 500.3C300 496 343 476 385.8 462.8C428.7 449.7 471.3 443.3 514.2 446.3C557 449.3 600 461.7 642.8 465C685.7 468.3 728.3 462.7 771.2 466.7C814 470.7 857 484.3 878.5 491.2L900 498L900 601L878.5 601C857 601 814 601 771.2 601C728.3 601 685.7 601 642.8 601C600 601 557 601 514.2 601C471.3 601 428.7 601 385.8 601C343 601 300 601 257.2 601C214.3 601 171.7 601 128.8 601C86 601 43 601 21.5 601L0 601Z" fill="#198754" stroke-linecap="round" stroke-linejoin="miter"></path></svg>